<svg xmlns="http://www.w3.org/2000/svg" version="1.1" xmlns:xlink="http://www.w3.org/1999/xlink" xmlns:svgjs="http://svgjs.dev/svgjs" width="1366" height="768" preserveAspectRatio="none" viewBox="0 0 1366 768"><g mask="url(&quot;#SvgjsMask1176&quot;)" fill="none"><rect width="1366" height="768" x="0" y="0" fill="url(&quot;#SvgjsLinearGradient1177&quot;)"></rect><path d="M15.3 -69.37L97.57 -21.87L97.57 73.13L15.3 120.63L-66.97 73.13L-66.97 -21.87zM15.3 215.63L97.57 263.13L97.57 358.13L15.3 405.63L-66.97 358.13L-66.97 263.13zM179.85 215.63L262.12 263.13L262.12 358.13L179.85 405.63L97.57 358.13L97.57 263.13zM262.12 358.13L344.4 405.63L344.4 500.63L262.12 548.13L179.85 500.63L179.85 405.63zM755.77 73.13L838.05 120.63L838.05 215.63L755.77 263.13L673.5 215.63L673.5 120.63zM755.77 358.13L838.05 405.63L838.05 500.63L755.77 548.13L673.5 500.63L673.5 405.63zM755.77 643.13L838.05 690.63L838.05 785.63L755.77 833.13L673.5 785.63L673.5 690.63zM838.05 -69.37L920.32 -21.87L920.32 73.13L838.05 120.63L755.77 73.13L755.77 -21.87zM920.32 358.13L1002.6 405.63L1002.6 500.63L920.32 548.13L838.05 500.63L838.05 405.63zM1249.42 73.13L1331.7 120.63L1331.7 215.63L1249.42 263.13L1167.15 215.63L1167.15 120.63zM1167.15 500.63L1249.42 548.13L1249.42 643.13L1167.15 690.63L1084.87 643.13L1084.87 548.13zM1413.97 73.13L1496.25 120.63L1496.25 215.63L1413.97 263.13L1331.7 215.63L1331.7 120.63zM1331.7 215.63L1413.97 263.13L1413.97 358.13L1331.7 405.63L1249.42 358.13L1249.42 263.13z" stroke="#03305d" stroke-width="2"></path><path d="M5.8 -69.37 a9.5 9.5 0 1 0 19 0 a9.5 9.5 0 1 0 -19 0zM88.07 -21.87 a9.5 9.5 0 1 0 19 0 a9.5 9.5 0 1 0 -19 0zM88.07 73.13 a9.5 9.5 0 1 0 19 0 a9.5 9.5 0 1 0 -19 0zM5.8 120.63 a9.5 9.5 0 1 0 19 0 a9.5 9.5 0 1 0 -19 0zM-76.47 73.13 a9.5 9.5 0 1 0 19 0 a9.5 9.5 0 1 0 -19 0zM-76.47 -21.87 a9.5 9.5 0 1 0 19 0 a9.5 9.5 0 1 0 -19 0zM5.8 215.63 a9.5 9.5 0 1 0 19 0 a9.5 9.5 0 1 0 -19 0zM88.07 263.13 a9.5 9.5 0 1 0 19 0 a9.5 9.5 0 1 0 -19 0zM88.07 358.13 a9.5 9.5 0 1 0 19 0 a9.5 9.5 0 1 0 -19 0zM5.8 405.63 a9.5 9.5 0 1 0 19 0 a9.5 9.5 0 1 0 -19 0zM-76.47 358.13 a9.5 9.5 0 1 0 19 0 a9.5 9.5 0 1 0 -19 0zM-76.47 263.13 a9.5 9.5 0 1 0 19 0 a9.5 9.5 0 1 0 -19 0zM170.35 215.63 a9.5 9.5 0 1 0 19 0 a9.5 9.5 0 1 0 -19 0zM252.62 263.13 a9.5 9.5 0 1 0 19 0 a9.5 9.5 0 1 0 -19 0zM252.62 358.13 a9.5 9.5 0 1 0 19 0 a9.5 9.5 0 1 0 -19 0zM170.35 405.63 a9.5 9.5 0 1 0 19 0 a9.5 9.5 0 1 0 -19 0zM334.9 405.63 a9.5 9.5 0 1 0 19 0 a9.5 9.5 0 1 0 -19 0zM334.9 500.63 a9.5 9.5 0 1 0 19 0 a9.5 9.5 0 1 0 -19 0zM252.62 548.13 a9.5 9.5 0 1 0 19 0 a9.5 9.5 0 1 0 -19 0zM170.35 500.63 a9.5 9.5 0 1 0 19 0 a9.5 9.5 0 1 0 -19 0zM746.27 73.13 a9.5 9.5 0 1 0 19 0 a9.5 9.5 0 1 0 -19 0zM828.55 120.63 a9.5 9.5 0 1 0 19 0 a9.5 9.5 0 1 0 -19 0zM828.55 215.63 a9.5 9.5 0 1 0 19 0 a9.5 9.5 0 1 0 -19 0zM746.27 263.13 a9.5 9.5 0 1 0 19 0 a9.5 9.5 0 1 0 -19 0zM664 215.63 a9.5 9.5 0 1 0 19 0 a9.5 9.5 0 1 0 -19 0zM664 120.63 a9.5 9.5 0 1 0 19 0 a9.5 9.5 0 1 0 -19 0zM746.27 358.13 a9.5 9.5 0 1 0 19 0 a9.5 9.5 0 1 0 -19 0zM828.55 405.63 a9.5 9.5 0 1 0 19 0 a9.5 9.5 0 1 0 -19 0zM828.55 500.63 a9.5 9.5 0 1 0 19 0 a9.5 9.5 0 1 0 -19 0zM746.27 548.13 a9.5 9.5 0 1 0 19 0 a9.5 9.5 0 1 0 -19 0zM664 500.63 a9.5 9.5 0 1 0 19 0 a9.5 9.5 0 1 0 -19 0zM664 405.63 a9.5 9.5 0 1 0 19 0 a9.5 9.5 0 1 0 -19 0zM746.27 643.13 a9.5 9.5 0 1 0 19 0 a9.5 9.5 0 1 0 -19 0zM828.55 690.63 a9.5 9.5 0 1 0 19 0 a9.5 9.5 0 1 0 -19 0zM828.55 785.63 a9.5 9.5 0 1 0 19 0 a9.5 9.5 0 1 0 -19 0zM746.27 833.13 a9.5 9.5 0 1 0 19 0 a9.5 9.5 0 1 0 -19 0zM664 785.63 a9.5 9.5 0 1 0 19 0 a9.5 9.5 0 1 0 -19 0zM664 690.63 a9.5 9.5 0 1 0 19 0 a9.5 9.5 0 1 0 -19 0zM828.55 -69.37 a9.5 9.5 0 1 0 19 0 a9.5 9.5 0 1 0 -19 0zM910.82 -21.87 a9.5 9.5 0 1 0 19 0 a9.5 9.5 0 1 0 -19 0zM910.82 73.13 a9.5 9.5 0 1 0 19 0 a9.5 9.5 0 1 0 -19 0zM746.27 -21.87 a9.5 9.5 0 1 0 19 0 a9.5 9.5 0 1 0 -19 0zM910.82 358.13 a9.5 9.5 0 1 0 19 0 a9.5 9.5 0 1 0 -19 0zM993.1 405.63 a9.5 9.5 0 1 0 19 0 a9.5 9.5 0 1 0 -19 0zM993.1 500.63 a9.5 9.5 0 1 0 19 0 a9.5 9.5 0 1 0 -19 0zM910.82 548.13 a9.5 9.5 0 1 0 19 0 a9.5 9.5 0 1 0 -19 0zM1239.92 73.13 a9.5 9.5 0 1 0 19 0 a9.5 9.5 0 1 0 -19 0zM1322.2 120.63 a9.5 9.5 0 1 0 19 0 a9.5 9.5 0 1 0 -19 0zM1322.2 215.63 a9.5 9.5 0 1 0 19 0 a9.5 9.5 0 1 0 -19 0zM1239.92 263.13 a9.5 9.5 0 1 0 19 0 a9.5 9.5 0 1 0 -19 0zM1157.65 215.63 a9.5 9.5 0 1 0 19 0 a9.5 9.5 0 1 0 -19 0zM1157.65 120.63 a9.5 9.5 0 1 0 19 0 a9.5 9.5 0 1 0 -19 0zM1157.65 500.63 a9.5 9.5 0 1 0 19 0 a9.5 9.5 0 1 0 -19 0zM1239.92 548.13 a9.5 9.5 0 1 0 19 0 a9.5 9.5 0 1 0 -19 0zM1239.92 643.13 a9.5 9.5 0 1 0 19 0 a9.5 9.5 0 1 0 -19 0zM1157.65 690.63 a9.5 9.5 0 1 0 19 0 a9.5 9.5 0 1 0 -19 0zM1075.37 643.13 a9.5 9.5 0 1 0 19 0 a9.5 9.5 0 1 0 -19 0zM1075.37 548.13 a9.5 9.5 0 1 0 19 0 a9.5 9.5 0 1 0 -19 0zM1404.47 73.13 a9.5 9.5 0 1 0 19 0 a9.5 9.5 0 1 0 -19 0zM1486.75 120.63 a9.5 9.5 0 1 0 19 0 a9.5 9.5 0 1 0 -19 0zM1486.75 215.63 a9.5 9.5 0 1 0 19 0 a9.5 9.5 0 1 0 -19 0zM1404.47 263.13 a9.5 9.5 0 1 0 19 0 a9.5 9.5 0 1 0 -19 0zM1404.47 358.13 a9.5 9.5 0 1 0 19 0 a9.5 9.5 0 1 0 -19 0zM1322.2 405.63 a9.5 9.5 0 1 0 19 0 a9.5 9.5 0 1 0 -19 0zM1239.92 358.13 a9.5 9.5 0 1 0 19 0 a9.5 9.5 0 1 0 -19 0z" fill="#03305d"></path><path d="M15.85 269.4L59.15 294.4L59.15 344.4L15.85 369.4L-27.45 344.4L-27.45 294.4zM59.15 344.4L102.45 369.4L102.45 419.4L59.15 444.4L15.85 419.4L15.85 369.4zM59.15 494.4L102.45 519.4L102.45 569.4L59.15 594.4L15.85 569.4L15.85 519.4zM102.45 119.4L145.76 144.4L145.76 194.4L102.45 219.4L59.15 194.4L59.15 144.4zM102.45 419.4L145.76 444.4L145.76 494.4L102.45 519.4L59.15 494.4L59.15 444.4zM145.76 494.4L189.06 519.4L189.06 569.4L145.76 594.4L102.45 569.4L102.45 519.4zM275.67 -30.6L318.97 -5.6L318.97 44.4L275.67 69.4L232.36 44.4L232.36 -5.6zM362.27 269.4L405.57 294.4L405.57 344.4L362.27 369.4L318.97 344.4L318.97 294.4zM362.27 419.4L405.57 444.4L405.57 494.4L362.27 519.4L318.97 494.4L318.97 444.4zM492.18 494.4L535.48 519.4L535.48 569.4L492.18 594.4L448.88 569.4L448.88 519.4zM535.48 119.4L578.78 144.4L578.78 194.4L535.48 219.4L492.18 194.4L492.18 144.4zM578.78 194.4L622.09 219.4L622.09 269.4L578.78 294.4L535.48 269.4L535.48 219.4zM578.78 644.4L622.09 669.4L622.09 719.4L578.78 744.4L535.48 719.4L535.48 669.4zM665.39 644.4L708.69 669.4L708.69 719.4L665.39 744.4L622.09 719.4L622.09 669.4zM708.69 269.4L751.99 294.4L751.99 344.4L708.69 369.4L665.39 344.4L665.39 294.4zM751.99 344.4L795.3 369.4L795.3 419.4L751.99 444.4L708.69 419.4L708.69 369.4zM708.69 719.4L751.99 744.4L751.99 794.4L708.69 819.4L665.39 794.4L665.39 744.4zM881.9 -30.6L925.2 -5.6L925.2 44.4L881.9 69.4L838.6 44.4L838.6 -5.6zM925.2 194.4L968.51 219.4L968.51 269.4L925.2 294.4L881.9 269.4L881.9 219.4zM925.2 494.4L968.51 519.4L968.51 569.4L925.2 594.4L881.9 569.4L881.9 519.4zM881.9 569.4L925.2 594.4L925.2 644.4L881.9 669.4L838.6 644.4L838.6 594.4zM1011.81 44.4L1055.11 69.4L1055.11 119.4L1011.81 144.4L968.51 119.4L968.51 69.4zM968.51 119.4L1011.81 144.4L1011.81 194.4L968.51 219.4L925.2 194.4L925.2 144.4zM1011.81 644.4L1055.11 669.4L1055.11 719.4L1011.81 744.4L968.51 719.4L968.51 669.4zM1055.11 119.4L1098.41 144.4L1098.41 194.4L1055.11 219.4L1011.81 194.4L1011.81 144.4zM1185.02 344.4L1228.32 369.4L1228.32 419.4L1185.02 444.4L1141.71 419.4L1141.71 369.4zM1185.02 644.4L1228.32 669.4L1228.32 719.4L1185.02 744.4L1141.71 719.4L1141.71 669.4zM1141.71 719.4L1185.02 744.4L1185.02 794.4L1141.71 819.4L1098.41 794.4L1098.41 744.4zM1314.92 419.4L1358.23 444.4L1358.23 494.4L1314.92 519.4L1271.62 494.4L1271.62 444.4z" stroke="rgba(6, 80, 156, 0.93)" stroke-width="2"></path></g><defs><mask id="SvgjsMask1176"><rect width="1366" height="768" fill="#ffffff"></rect></mask><linearGradient x1="10.94%" y1="-19.47%" x2="89.06%" y2="119.47%" gradientUnits="userSpaceOnUse" id="SvgjsLinearGradient1177"><stop stop-color="#0e2a47" offset="0"></stop><stop stop-color="#00459e" offset="1"></stop></linearGradient></defs></svg>